<svg width="85" height="85" viewBox="0 0 85 85" fill="none" xmlns="http://www.w3.org/2000/svg">
<circle cx="42.5" cy="42.5" r="42.5" fill="#2D3471"/>
<path d="M34.8 32.72H31.488V27.056H36.672V20.96H43.056V27.056H47.52V29.408C48.288 28.16 48.96 26.784 49.536 25.28C50.144 23.776 50.624 22.24 50.976 20.672L56.736 22.016C56.608 22.592 56.448 23.168 56.256 23.744C56.096 24.32 55.904 24.896 55.68 25.472H64.032V31.136H53.28C53.088 31.52 52.88 31.888 52.656 32.24C52.464 32.592 52.256 32.944 52.032 33.296H59.568L60.72 32.96L64.272 35.648C63.6 36.736 62.848 37.888 62.016 39.104C61.184 40.32 60.336 41.44 59.472 42.464H64.32V47.888H59.232V52.304C59.232 53.584 59.104 54.656 58.848 55.52C58.592 56.352 58.016 56.992 57.12 57.44C56.288 57.888 55.328 58.176 54.24 58.304C53.184 58.4 51.984 58.448 50.64 58.448C50.544 57.616 50.304 56.656 49.92 55.568C49.568 54.48 49.184 53.536 48.768 52.736C49.568 52.768 50.352 52.784 51.12 52.784C51.888 52.784 52.4 52.784 52.656 52.784C53.136 52.784 53.376 52.592 53.376 52.208V47.888H48.72V42.464H53.376V40.16H55.104C55.296 39.872 55.488 39.568 55.68 39.248C55.904 38.928 56.096 38.608 56.256 38.288H49.728V34.208C49.408 33.888 49.04 33.568 48.624 33.248C48.24 32.928 47.872 32.624 47.52 32.336V32.72H40.368V35.36H47.856C47.856 35.36 47.84 35.648 47.808 36.224C47.808 36.8 47.808 37.264 47.808 37.616C47.744 41.744 47.648 45.104 47.52 47.696C47.424 50.288 47.28 52.272 47.088 53.648C46.896 55.024 46.608 55.984 46.224 56.528C45.808 57.136 45.36 57.584 44.88 57.872C44.432 58.16 43.888 58.368 43.248 58.496C42.736 58.624 42.096 58.704 41.328 58.736C40.592 58.768 39.792 58.784 38.928 58.784C38.896 57.984 38.752 57.104 38.496 56.144C38.272 55.152 37.984 54.288 37.632 53.552C37.248 54.384 36.8 55.2 36.288 56C35.776 56.768 35.2 57.488 34.56 58.16C34.144 57.552 33.52 56.832 32.688 56C31.888 55.168 31.184 54.544 30.576 54.128C31.856 52.624 32.784 50.912 33.36 48.992C33.968 47.04 34.352 45.088 34.512 43.136C34.704 41.152 34.8 39.376 34.8 37.808V32.72ZM24.912 33.728C24.592 32.96 24.096 32.096 23.424 31.136C22.784 30.144 22.064 29.152 21.264 28.16C20.464 27.168 19.68 26.256 18.912 25.424L24.432 21.968C25.232 22.736 26.048 23.584 26.88 24.512C27.712 25.44 28.48 26.368 29.184 27.296C29.92 28.192 30.48 29.04 30.864 29.84L24.912 33.728ZM30.48 54.944C31.312 56.48 32.496 57.6 34.032 58.304C35.568 59.008 37.472 59.408 39.744 59.504C41.312 59.568 43.168 59.616 45.312 59.648C47.488 59.648 49.776 59.632 52.176 59.6C54.576 59.568 56.912 59.504 59.184 59.408C61.488 59.312 63.552 59.184 65.376 59.024C65.152 59.536 64.896 60.176 64.608 60.944C64.32 61.712 64.064 62.496 63.84 63.296C63.616 64.128 63.44 64.864 63.312 65.504C61.68 65.6 59.84 65.664 57.792 65.696C55.744 65.76 53.632 65.792 51.456 65.792C49.28 65.824 47.184 65.824 45.168 65.792C43.152 65.76 41.344 65.712 39.744 65.648C36.96 65.52 34.608 65.072 32.688 64.304C30.768 63.568 29.104 62.272 27.696 60.416C26.864 61.312 25.984 62.208 25.056 63.104C24.128 64.032 23.104 65.024 21.984 66.08L18.768 59.408C19.6 58.864 20.464 58.256 21.36 57.584C22.256 56.912 23.136 56.224 24 55.52V45.968H19.536V39.536H30.48V54.944ZM40.32 40.928C40.224 42.88 39.984 44.944 39.6 47.12C39.248 49.264 38.64 51.328 37.776 53.312C38.224 53.344 38.624 53.376 38.976 53.408C39.36 53.408 39.68 53.408 39.936 53.408C40.448 53.408 40.848 53.184 41.136 52.736C41.296 52.48 41.424 51.952 41.52 51.152C41.616 50.32 41.696 49.088 41.76 47.456C41.856 45.792 41.92 43.616 41.952 40.928H40.32Z" fill="white"/>
</svg>
