<svg width="300" height="85" viewBox="0 0 300 85" fill="none" xmlns="http://www.w3.org/2000/svg">
<path d="M107.16 44.096L102.216 56H99.768L114.216 21.44H115.56L130.056 56H127.464L122.52 44.096H107.16ZM114.744 25.28C114.712 25.312 114.648 25.504 114.552 25.856C114.104 27.232 113.672 28.4 113.256 29.36L107.976 42.128H121.704L116.424 29.408C115.304 26.976 114.744 25.6 114.744 25.28ZM142.876 26.192C141.148 26.192 139.74 26.608 138.652 27.44C137.564 28.272 137.02 29.44 137.02 30.944C137.02 32.672 137.74 34.224 139.18 35.6C140.204 36.592 141.516 37.648 143.116 38.768C144.748 39.856 145.868 40.64 146.476 41.12C147.084 41.6 147.82 42.256 148.684 43.088C150.252 44.656 151.036 46.464 151.036 48.512C151.036 51.168 150.14 53.184 148.348 54.56C146.588 55.904 144.108 56.576 140.908 56.576C137.74 56.576 135.084 55.744 132.94 54.08L134.092 52.4C136.268 53.872 138.572 54.608 141.004 54.608C143.436 54.608 145.324 54.096 146.668 53.072C148.044 52.048 148.732 50.608 148.732 48.752C148.732 47.152 148.044 45.68 146.668 44.336C145.708 43.376 144.412 42.336 142.78 41.216C141.18 40.096 140.06 39.296 139.42 38.816C138.78 38.304 138.028 37.632 137.164 36.8C135.532 35.168 134.716 33.28 134.716 31.136C134.716 28.992 135.468 27.312 136.972 26.096C138.508 24.88 140.62 24.272 143.308 24.272C145.996 24.272 148.412 24.8 150.556 25.856L149.74 27.632C147.756 26.672 145.468 26.192 142.876 26.192ZM173.661 56.48C169.213 56.48 165.485 54.928 162.477 51.824C159.469 48.72 157.965 44.928 157.965 40.448C157.965 35.936 159.469 32.128 162.477 29.024C165.485 25.92 169.213 24.368 173.661 24.368C178.109 24.368 181.837 25.92 184.845 29.024C187.853 32.128 189.357 35.936 189.357 40.448C189.357 44.928 187.853 48.72 184.845 51.824C181.837 54.928 178.109 56.48 173.661 56.48ZM173.661 26.336C169.821 26.336 166.621 27.696 164.061 30.416C161.533 33.136 160.269 36.48 160.269 40.448C160.269 44.384 161.533 47.712 164.061 50.432C166.621 53.12 169.821 54.464 173.661 54.464C177.533 54.464 180.733 53.12 183.261 50.432C185.789 47.712 187.053 44.384 187.053 40.448C187.053 36.48 185.789 33.136 183.261 30.416C180.733 27.696 177.533 26.336 173.661 26.336ZM198.931 24.992C201.203 24.8 203.539 24.704 205.939 24.704C208.339 24.704 210.387 25.28 212.083 26.432C213.811 27.584 214.675 29.264 214.675 31.472C214.675 33.136 214.227 34.672 213.331 36.08C212.435 37.488 211.347 38.56 210.067 39.296C212.147 39.904 213.875 40.992 215.251 42.56C216.627 44.128 217.315 45.904 217.315 47.888C217.315 50.64 216.435 52.72 214.675 54.128C212.947 55.536 210.499 56.24 207.331 56.24C204.163 56.24 201.363 56.128 198.931 55.904V24.992ZM203.299 40.256L201.139 40.304V54.08C202.515 54.208 204.739 54.272 207.811 54.272C209.891 54.272 211.603 53.696 212.947 52.544C214.323 51.36 215.011 49.888 215.011 48.128C215.011 46.336 214.323 44.784 212.947 43.472C211.603 42.128 209.843 41.184 207.667 40.64C206.547 40.384 205.091 40.256 203.299 40.256ZM212.515 31.424C212.515 29.856 211.859 28.656 210.547 27.824C209.235 26.96 207.667 26.528 205.843 26.528C204.019 26.528 202.451 26.576 201.139 26.672V38.432C203.923 38.432 206.147 38.512 207.811 38.672C209.059 38 210.147 37.024 211.075 35.744C212.035 34.432 212.515 32.992 212.515 31.424ZM239.567 56.48C235.119 56.48 231.391 54.928 228.383 51.824C225.375 48.72 223.871 44.928 223.871 40.448C223.871 35.936 225.375 32.128 228.383 29.024C231.391 25.92 235.119 24.368 239.567 24.368C244.015 24.368 247.743 25.92 250.751 29.024C253.759 32.128 255.263 35.936 255.263 40.448C255.263 44.928 253.759 48.72 250.751 51.824C247.743 54.928 244.015 56.48 239.567 56.48ZM239.567 26.336C235.727 26.336 232.527 27.696 229.967 30.416C227.439 33.136 226.175 36.48 226.175 40.448C226.175 44.384 227.439 47.712 229.967 50.432C232.527 53.12 235.727 54.464 239.567 54.464C243.439 54.464 246.639 53.12 249.167 50.432C251.695 47.712 252.959 44.384 252.959 40.448C252.959 36.48 251.695 33.136 249.167 30.416C246.639 27.696 243.439 26.336 239.567 26.336ZM287.061 52.784C284.949 55.248 281.733 56.48 277.413 56.48C273.093 56.48 269.877 55.248 267.765 52.784C265.653 50.32 264.597 46.912 264.597 42.56V24.848H266.805V42.56C266.805 50.528 270.341 54.512 277.413 54.512C284.485 54.512 288.021 50.528 288.021 42.56V24.848H290.229V42.56C290.229 46.912 289.173 50.32 287.061 52.784Z" fill="black"/>
<circle cx="42.5" cy="42.5" r="42.5" fill="#2D3471"/>
<path d="M34.8 32.72H31.488V27.056H36.672V20.96H43.056V27.056H47.52V29.408C48.288 28.16 48.96 26.784 49.536 25.28C50.144 23.776 50.624 22.24 50.976 20.672L56.736 22.016C56.608 22.592 56.448 23.168 56.256 23.744C56.096 24.32 55.904 24.896 55.68 25.472H64.032V31.136H53.28C53.088 31.52 52.88 31.888 52.656 32.24C52.464 32.592 52.256 32.944 52.032 33.296H59.568L60.72 32.96L64.272 35.648C63.6 36.736 62.848 37.888 62.016 39.104C61.184 40.32 60.336 41.44 59.472 42.464H64.32V47.888H59.232V52.304C59.232 53.584 59.104 54.656 58.848 55.52C58.592 56.352 58.016 56.992 57.12 57.44C56.288 57.888 55.328 58.176 54.24 58.304C53.184 58.4 51.984 58.448 50.64 58.448C50.544 57.616 50.304 56.656 49.92 55.568C49.568 54.48 49.184 53.536 48.768 52.736C49.568 52.768 50.352 52.784 51.12 52.784C51.888 52.784 52.4 52.784 52.656 52.784C53.136 52.784 53.376 52.592 53.376 52.208V47.888H48.72V42.464H53.376V40.16H55.104C55.296 39.872 55.488 39.568 55.68 39.248C55.904 38.928 56.096 38.608 56.256 38.288H49.728V34.208C49.408 33.888 49.04 33.568 48.624 33.248C48.24 32.928 47.872 32.624 47.52 32.336V32.72H40.368V35.36H47.856C47.856 35.36 47.84 35.648 47.808 36.224C47.808 36.8 47.808 37.264 47.808 37.616C47.744 41.744 47.648 45.104 47.52 47.696C47.424 50.288 47.28 52.272 47.088 53.648C46.896 55.024 46.608 55.984 46.224 56.528C45.808 57.136 45.36 57.584 44.88 57.872C44.432 58.16 43.888 58.368 43.248 58.496C42.736 58.624 42.096 58.704 41.328 58.736C40.592 58.768 39.792 58.784 38.928 58.784C38.896 57.984 38.752 57.104 38.496 56.144C38.272 55.152 37.984 54.288 37.632 53.552C37.248 54.384 36.8 55.2 36.288 56C35.776 56.768 35.2 57.488 34.56 58.16C34.144 57.552 33.52 56.832 32.688 56C31.888 55.168 31.184 54.544 30.576 54.128C31.856 52.624 32.784 50.912 33.36 48.992C33.968 47.04 34.352 45.088 34.512 43.136C34.704 41.152 34.8 39.376 34.8 37.808V32.72ZM24.912 33.728C24.592 32.96 24.096 32.096 23.424 31.136C22.784 30.144 22.064 29.152 21.264 28.16C20.464 27.168 19.68 26.256 18.912 25.424L24.432 21.968C25.232 22.736 26.048 23.584 26.88 24.512C27.712 25.44 28.48 26.368 29.184 27.296C29.92 28.192 30.48 29.04 30.864 29.84L24.912 33.728ZM30.48 54.944C31.312 56.48 32.496 57.6 34.032 58.304C35.568 59.008 37.472 59.408 39.744 59.504C41.312 59.568 43.168 59.616 45.312 59.648C47.488 59.648 49.776 59.632 52.176 59.6C54.576 59.568 56.912 59.504 59.184 59.408C61.488 59.312 63.552 59.184 65.376 59.024C65.152 59.536 64.896 60.176 64.608 60.944C64.32 61.712 64.064 62.496 63.84 63.296C63.616 64.128 63.44 64.864 63.312 65.504C61.68 65.6 59.84 65.664 57.792 65.696C55.744 65.76 53.632 65.792 51.456 65.792C49.28 65.824 47.184 65.824 45.168 65.792C43.152 65.76 41.344 65.712 39.744 65.648C36.96 65.52 34.608 65.072 32.688 64.304C30.768 63.568 29.104 62.272 27.696 60.416C26.864 61.312 25.984 62.208 25.056 63.104C24.128 64.032 23.104 65.024 21.984 66.08L18.768 59.408C19.6 58.864 20.464 58.256 21.36 57.584C22.256 56.912 23.136 56.224 24 55.52V45.968H19.536V39.536H30.48V54.944ZM40.32 40.928C40.224 42.88 39.984 44.944 39.6 47.12C39.248 49.264 38.64 51.328 37.776 53.312C38.224 53.344 38.624 53.376 38.976 53.408C39.36 53.408 39.68 53.408 39.936 53.408C40.448 53.408 40.848 53.184 41.136 52.736C41.296 52.48 41.424 51.952 41.52 51.152C41.616 50.32 41.696 49.088 41.76 47.456C41.856 45.792 41.92 43.616 41.952 40.928H40.32Z" fill="white"/>
</svg>
